<svg class="svg-icon" style="width: 1em; height: 1em;vertical-align: middle;fill: currentColor;overflow: hidden;"
     viewBox="0 0 1024 1024" version="1.1" xmlns="http://www.w3.org/2000/svg">
    <path d="M851.428571 755.428571q0 22.857143-16 38.857143l-77.714285 77.714286q-16 16-38.857143 16t-38.857143-16l-168-168-168 168q-16 16-38.857143 16t-38.857143-16l-77.714285-77.714286q-16-16-16-38.857143t16-38.857142l168-168-168-168q-16-16-16-38.857143t16-38.857143l77.714285-77.714286q16-16 38.857143-16t38.857143 16l168 168 168-168q16-16 38.857143-16t38.857143 16l77.714285 77.714286q16 16 16 38.857143t-16 38.857143l-168 168 168 168q16 16 16 38.857142z"/>
</svg>